<?xml version="1.0" standalone="no"?>
<!DOCTYPE svg PUBLIC "-//W3C//DTD SVG 20010904//EN"
 "http://www.w3.org/TR/2001/REC-SVG-20010904/DTD/svg10.dtd">
<svg version="1.0" xmlns="http://www.w3.org/2000/svg"
 width="120.000000pt" height="120.000000pt" viewBox="0 0 120.000000 120.000000"
 preserveAspectRatio="xMidYMid meet">
<metadata>
Created by potrace 1.14, written by Peter Selinger 2001-2017
</metadata>
<g transform="translate(0.000000,120.000000) scale(0.100000,-0.100000)"
fill="#000000" stroke="none">
<path d="M995 1090 c-3 -5 1 -22 9 -38 75 -145 21 -639 -88 -801 -17 -25 -43
-52 -58 -60 -24 -14 -28 -14 -47 3 -53 49 -73 259 -50 537 19 237 19 234 -11
234 -24 0 -30 -14 -132 -315 l-107 -315 0 127 c-2 342 -70 498 -216 498 -59 0
-98 -21 -135 -72 -58 -80 -77 -217 -44 -327 17 -58 86 -136 130 -147 56 -14
124 33 124 86 0 44 -23 48 -65 11 -43 -38 -55 -38 -88 -5 -85 84 -72 278 23
358 38 31 99 36 126 9 58 -59 84 -216 84 -519 0 -205 1 -222 19 -238 39 -36
51 -12 136 260 l80 258 6 -145 c9 -230 31 -307 98 -353 78 -54 139 -21 200
107 76 158 117 395 109 616 -6 153 -33 241 -73 241 -13 0 -27 -4 -30 -10z"/>
</g>
</svg>
