<svg width="719" height="113" viewBox="0 0 719 113" fill="none" xmlns="http://www.w3.org/2000/svg">
<path d="M31.2923 54.079L20.587 63.8797V88.1482H0V3.20857H20.587V41.7114L29.6453 31.1523L55.1046 3.20857H80.4267L44.9484 40.953L81.456 88.1482H56.9575L31.2923 54.079Z" fill="#565658" fill-opacity="0.2"/>
<path d="M120.297 89.3149C109.409 89.3149 100.533 86.4758 93.671 80.7976C86.8544 75.1194 83.4461 67.555 83.4461 58.1043V56.4708C83.4461 50.1315 84.8872 44.4727 87.7694 39.4946C90.6516 34.4775 94.7232 30.6273 99.9844 27.9437C105.291 25.2213 111.33 23.8601 118.101 23.8601C128.257 23.8601 136.24 26.5825 142.051 32.0274C147.906 37.4722 150.834 45.1922 150.834 55.1874V62.0712H103.553C104.193 66.1938 106.115 69.4996 109.317 71.9886C112.565 74.4777 116.66 75.7223 121.601 75.7223C129.241 75.7223 135.211 73.3693 139.511 68.6634L149.256 77.9391C146.282 81.5171 142.256 84.3173 137.178 86.3397C132.1 88.3232 126.473 89.3149 120.297 89.3149ZM118.032 37.5111C114.098 37.5111 110.896 38.639 108.425 40.8947C106 43.1504 104.445 46.3784 103.759 50.5787H131.345V49.237C131.254 45.5034 130.064 42.6254 127.777 40.603C125.489 38.5417 122.241 37.5111 118.032 37.5111Z" fill="#565658" fill-opacity="0.2"/>
<path d="M196.332 89.3149C185.443 89.3149 176.568 86.4758 169.706 80.7976C162.889 75.1194 159.481 67.555 159.481 58.1043V56.4708C159.481 50.1315 160.922 44.4727 163.804 39.4946C166.686 34.4775 170.758 30.6273 176.019 27.9437C181.326 25.2213 187.365 23.8601 194.136 23.8601C204.292 23.8601 212.275 26.5825 218.085 32.0274C223.941 37.4722 226.869 45.1922 226.869 55.1874V62.0712H179.588C180.228 66.1938 182.15 69.4996 185.352 71.9886C188.6 74.4777 192.695 75.7223 197.636 75.7223C205.276 75.7223 211.246 73.3693 215.546 68.6634L225.291 77.9391C222.317 81.5171 218.291 84.3173 213.213 86.3397C208.135 88.3232 202.508 89.3149 196.332 89.3149ZM194.067 37.5111C190.133 37.5111 186.93 38.639 184.46 40.8947C182.035 43.1504 180.48 46.3784 179.793 50.5787H207.38V49.237C207.289 45.5034 206.099 42.6254 203.812 40.603C201.524 38.5417 198.276 37.5111 194.067 37.5111Z" fill="#565658" fill-opacity="0.2"/>
<path d="M305.031 57.1709C305.031 66.8938 302.424 74.6916 297.208 80.5643C292.039 86.398 285.039 89.3149 276.209 89.3149C268.707 89.3149 262.645 87.0981 258.024 82.6644V112.417H238.192V25.0268H256.583L257.269 31.2106C262.073 26.3103 268.341 23.8601 276.072 23.8601C285.222 23.8601 292.336 26.7381 297.414 32.4941C302.492 38.25 305.031 46.184 305.031 56.2958V57.1709ZM285.199 55.9458C285.199 50.0731 283.964 45.5422 281.493 42.3531C279.069 39.164 275.523 37.5694 270.857 37.5694C264.635 37.5694 260.357 39.5918 258.024 43.6366V69.4801C260.449 73.6415 264.772 75.7223 270.994 75.7223C280.464 75.7223 285.199 69.1301 285.199 55.9458Z" fill="#565658" fill-opacity="0.2"/>
<path d="M349.499 56.1208C349.499 46.4368 352.198 38.639 357.597 32.7274C363.041 26.8159 370.361 23.8601 379.556 23.8601C387.7 23.8601 394.036 26.2325 398.565 30.9773L399.389 25.0268H417.368V86.048C417.368 91.5706 415.881 96.3738 412.907 100.457C409.979 104.541 405.839 107.652 400.487 109.791C395.134 111.93 388.866 113 381.684 113C376.24 113 370.933 112.067 365.763 110.2C360.593 108.372 356.682 105.999 354.028 103.083L362.812 92.8152C367.753 97.5211 373.746 99.874 380.792 99.874C386.053 99.874 390.147 98.6684 393.075 96.2571C396.003 93.8847 397.467 90.5011 397.467 86.1063V82.7228C392.892 87.1175 386.876 89.3149 379.419 89.3149C370.498 89.3149 363.27 86.3591 357.734 80.4476C352.244 74.4972 349.499 66.6216 349.499 56.8209V56.1208ZM369.331 57.3459C369.331 63.063 370.681 67.555 373.38 70.8219C376.079 74.0499 379.785 75.6639 384.497 75.6639C390.536 75.6639 394.859 73.7388 397.467 69.8885V43.3449C394.814 39.4946 390.536 37.5694 384.634 37.5694C379.877 37.5694 376.125 39.2223 373.38 42.5281C370.681 45.8339 369.331 50.7732 369.331 57.3459Z" fill="#565658" fill-opacity="0.2"/>
<path d="M429.583 56.0041C429.583 49.7426 431.001 44.1616 433.837 39.2612C436.674 34.3609 440.746 30.5689 446.052 27.8854C451.405 25.2019 457.604 23.8601 464.649 23.8601C474.668 23.8601 482.835 26.4658 489.148 31.6773C495.507 36.8888 499.053 43.9671 499.785 52.9122L499.922 57.2292C499.922 66.9133 496.742 74.6916 490.383 80.5643C484.024 86.398 475.492 89.3149 464.787 89.3149C454.081 89.3149 445.526 86.398 439.122 80.5643C432.762 74.7305 429.583 66.7966 429.583 56.7625V56.0041ZM449.415 57.2292C449.415 63.2185 450.742 67.8078 453.395 70.9969C456.049 74.1471 459.846 75.7223 464.787 75.7223C469.59 75.7223 473.342 74.1666 476.041 71.0552C478.74 67.905 480.09 62.888 480.09 56.0041C480.09 50.1315 478.74 45.5811 476.041 42.3531C473.342 39.1251 469.545 37.5111 464.649 37.5111C459.8 37.5111 456.049 39.1251 453.395 42.3531C450.742 45.5422 449.415 50.5009 449.415 57.2292Z" fill="#565658" fill-opacity="0.2"/>
<path d="M533.067 88.1482H513.166V25.0268H533.067V88.1482ZM512 8.69231C512 6.16434 512.983 4.08363 514.95 2.45018C516.963 0.816727 519.685 0 523.117 0C526.502 0 529.201 0.816727 531.214 2.45018C533.227 4.08363 534.234 6.16434 534.234 8.69231C534.234 11.2592 533.204 13.3593 531.146 14.9928C529.133 16.6262 526.456 17.443 523.117 17.443C519.777 17.443 517.078 16.6262 515.019 14.9928C513.006 13.3593 512 11.2592 512 8.69231Z" fill="#565658" fill-opacity="0.2"/>
<path d="M567.722 25.0268L568.339 32.319C573.646 26.6797 580.76 23.8601 589.681 23.8601C597.55 23.8601 603.406 25.8241 607.249 29.7522C611.092 33.6803 613.059 39.5529 613.151 47.3702V88.1482H593.318V47.7785C593.318 44.2005 592.403 41.6142 590.573 40.0196C588.744 38.3862 585.701 37.5694 581.447 37.5694C575.865 37.5694 571.679 39.5918 568.888 43.6366V88.1482H549.056V25.0268H567.722Z" fill="#565658" fill-opacity="0.2"/>
<path d="M625.366 56.1208C625.366 46.4368 628.065 38.639 633.463 32.7274C638.907 26.8159 646.227 23.8601 655.423 23.8601C663.566 23.8601 669.902 26.2325 674.431 30.9773L675.255 25.0268H693.234V86.048C693.234 91.5706 691.747 96.3738 688.774 100.457C685.846 104.541 681.705 107.652 676.353 109.791C671 111.93 664.733 113 657.55 113C652.106 113 646.799 112.067 641.629 110.2C636.46 108.372 632.548 105.999 629.895 103.083L638.679 92.8152C643.619 97.5211 649.613 99.874 656.658 99.874C661.919 99.874 666.014 98.6684 668.941 96.2571C671.869 93.8847 673.333 90.5011 673.333 86.1063V82.7228C668.758 87.1175 662.742 89.3149 655.285 89.3149C646.364 89.3149 639.136 86.3591 633.6 80.4476C628.111 74.4972 625.366 66.6216 625.366 56.8209V56.1208ZM645.198 57.3459C645.198 63.063 646.547 67.555 649.247 70.8219C651.946 74.0499 655.651 75.6639 660.364 75.6639C666.402 75.6639 670.726 73.7388 673.333 69.8885V43.3449C670.68 39.4946 666.402 37.5694 660.501 37.5694C655.743 37.5694 651.991 39.2223 649.247 42.5281C646.547 45.8339 645.198 50.7732 645.198 57.3459Z" fill="#565658" fill-opacity="0.2"/>
<path d="M32.4635 54.079L21.7582 63.8797V88.1482H1.17117V3.20857H21.7582V41.7114L30.8165 31.1523L56.2758 3.20857H81.5979L46.1195 40.953L82.6272 88.1482H58.1286L32.4635 54.079Z" fill="#565658" fill-opacity="0.2"/>
<path d="M121.468 89.3149C110.58 89.3149 101.705 86.4758 94.8422 80.7976C88.0256 75.1194 84.6173 67.555 84.6173 58.1043V56.4708C84.6173 50.1315 86.0584 44.4727 88.9406 39.4946C91.8228 34.4775 95.8944 30.6273 101.156 27.9437C106.462 25.2213 112.501 23.8601 119.272 23.8601C129.428 23.8601 137.412 26.5825 143.222 32.0274C149.078 37.4722 152.006 45.1922 152.006 55.1874V62.0712H104.724C105.364 66.1938 107.286 69.4996 110.488 71.9886C113.737 74.4777 117.831 75.7223 122.772 75.7223C130.412 75.7223 136.382 73.3693 140.683 68.6634L150.427 77.9391C147.454 81.5171 143.428 84.3173 138.349 86.3397C133.271 88.3232 127.644 89.3149 121.468 89.3149ZM119.204 37.5111C115.269 37.5111 112.067 38.639 109.596 40.8947C107.172 43.1504 105.616 46.3784 104.93 50.5787H132.516V49.237C132.425 45.5034 131.236 42.6254 128.948 40.603C126.661 38.5417 123.412 37.5111 119.204 37.5111Z" fill="#565658" fill-opacity="0.2"/>
<path d="M197.503 89.3149C186.615 89.3149 177.739 86.4758 170.877 80.7976C164.06 75.1194 160.652 67.555 160.652 58.1043V56.4708C160.652 50.1315 162.093 44.4727 164.975 39.4946C167.858 34.4775 171.929 30.6273 177.19 27.9437C182.497 25.2213 188.536 23.8601 195.307 23.8601C205.463 23.8601 213.446 26.5825 219.257 32.0274C225.112 37.4722 228.04 45.1922 228.04 55.1874V62.0712H180.759C181.399 66.1938 183.321 69.4996 186.523 71.9886C189.771 74.4777 193.866 75.7223 198.807 75.7223C206.447 75.7223 212.417 73.3693 216.717 68.6634L226.462 77.9391C223.488 81.5171 219.462 84.3173 214.384 86.3397C209.306 88.3232 203.679 89.3149 197.503 89.3149ZM195.238 37.5111C191.304 37.5111 188.101 38.639 185.631 40.8947C183.206 43.1504 181.651 46.3784 180.965 50.5787H208.551V49.237C208.46 45.5034 207.27 42.6254 204.983 40.603C202.695 38.5417 199.447 37.5111 195.238 37.5111Z" fill="#565658" fill-opacity="0.2"/>
<path d="M306.202 57.1709C306.202 66.8938 303.595 74.6916 298.379 80.5643C293.21 86.398 286.21 89.3149 277.381 89.3149C269.878 89.3149 263.816 87.0981 259.195 82.6644V112.417H239.363V25.0268H257.754L258.441 31.2106C263.244 26.3103 269.512 23.8601 277.243 23.8601C286.393 23.8601 293.507 26.7381 298.585 32.4941C303.663 38.25 306.202 46.184 306.202 56.2958V57.1709ZM286.37 55.9458C286.37 50.0731 285.135 45.5422 282.665 42.3531C280.24 39.164 276.694 37.5694 272.028 37.5694C265.806 37.5694 261.529 39.5918 259.195 43.6366V69.4801C261.62 73.6415 265.943 75.7223 272.165 75.7223C281.635 75.7223 286.37 69.1301 286.37 55.9458Z" fill="#565658" fill-opacity="0.2"/>
<path d="M350.67 56.1208C350.67 46.4368 353.37 38.639 358.768 32.7274C364.212 26.8159 371.532 23.8601 380.728 23.8601C388.871 23.8601 395.207 26.2325 399.736 30.9773L400.56 25.0268H418.539V86.048C418.539 91.5706 417.052 96.3738 414.079 100.457C411.151 104.541 407.01 107.652 401.658 109.791C396.305 111.93 390.037 113 382.855 113C377.411 113 372.104 112.067 366.934 110.2C361.765 108.372 357.853 105.999 355.2 103.083L363.983 92.8152C368.924 97.5211 374.917 99.874 381.963 99.874C387.224 99.874 391.318 98.6684 394.246 96.2571C397.174 93.8847 398.638 90.5011 398.638 86.1063V82.7228C394.063 87.1175 388.047 89.3149 380.59 89.3149C371.669 89.3149 364.441 86.3591 358.905 80.4476C353.415 74.4972 350.67 66.6216 350.67 56.8209V56.1208ZM370.503 57.3459C370.503 63.063 371.852 67.555 374.551 70.8219C377.251 74.0499 380.956 75.6639 385.668 75.6639C391.707 75.6639 396.031 73.7388 398.638 69.8885V43.3449C395.985 39.4946 391.707 37.5694 385.806 37.5694C381.048 37.5694 377.296 39.2223 374.551 42.5281C371.852 45.8339 370.503 50.7732 370.503 57.3459Z" fill="#565658" fill-opacity="0.2"/>
<path d="M430.754 56.0041C430.754 49.7426 432.172 44.1616 435.009 39.2612C437.845 34.3609 441.917 30.5689 447.224 27.8854C452.576 25.2019 458.775 23.8601 465.821 23.8601C475.84 23.8601 484.006 26.4658 490.319 31.6773C496.678 36.8888 500.224 43.9671 500.956 52.9122L501.093 57.2292C501.093 66.9133 497.914 74.6916 491.554 80.5643C485.195 86.398 476.663 89.3149 465.958 89.3149C455.253 89.3149 446.698 86.398 440.293 80.5643C433.934 74.7305 430.754 66.7966 430.754 56.7625V56.0041ZM450.586 57.2292C450.586 63.2185 451.913 67.8078 454.566 70.9969C457.22 74.1471 461.017 75.7223 465.958 75.7223C470.762 75.7223 474.513 74.1666 477.212 71.0552C479.911 67.905 481.261 62.888 481.261 56.0041C481.261 50.1315 479.911 45.5811 477.212 42.3531C474.513 39.1251 470.716 37.5111 465.821 37.5111C460.971 37.5111 457.22 39.1251 454.566 42.3531C451.913 45.5422 450.586 50.5009 450.586 57.2292Z" fill="#565658" fill-opacity="0.2"/>
<path d="M534.238 88.1482H514.337V25.0268H534.238V88.1482ZM513.171 8.69231C513.171 6.16434 514.154 4.08363 516.122 2.45018C518.135 0.816727 520.857 0 524.288 0C527.673 0 530.372 0.816727 532.385 2.45018C534.398 4.08363 535.405 6.16434 535.405 8.69231C535.405 11.2592 534.375 13.3593 532.317 14.9928C530.304 16.6262 527.628 17.443 524.288 17.443C520.948 17.443 518.249 16.6262 516.19 14.9928C514.177 13.3593 513.171 11.2592 513.171 8.69231Z" fill="#565658" fill-opacity="0.2"/>
<path d="M568.893 25.0268L569.511 32.319C574.818 26.6797 581.932 23.8601 590.853 23.8601C598.721 23.8601 604.577 25.8241 608.42 29.7522C612.263 33.6803 614.23 39.5529 614.322 47.3702V88.1482H594.49V47.7785C594.49 44.2005 593.575 41.6142 591.745 40.0196C589.915 38.3862 586.872 37.5694 582.618 37.5694C577.036 37.5694 572.85 39.5918 570.06 43.6366V88.1482H550.227V25.0268H568.893Z" fill="#565658" fill-opacity="0.2"/>
<path d="M626.537 56.1208C626.537 46.4368 629.236 38.639 634.634 32.7274C640.078 26.8159 647.398 23.8601 656.594 23.8601C664.737 23.8601 671.073 26.2325 675.603 30.9773L676.426 25.0268H694.405V86.048C694.405 91.5706 692.919 96.3738 689.945 100.457C687.017 104.541 682.877 107.652 677.524 109.791C672.171 111.93 665.904 113 658.721 113C653.277 113 647.97 112.067 642.801 110.2C637.631 108.372 633.719 105.999 631.066 103.083L639.85 92.8152C644.791 97.5211 650.784 99.874 657.829 99.874C663.09 99.874 667.185 98.6684 670.113 96.2571C673.041 93.8847 674.505 90.5011 674.505 86.1063V82.7228C669.93 87.1175 663.914 89.3149 656.457 89.3149C647.536 89.3149 640.307 86.3591 634.772 80.4476C629.282 74.4972 626.537 66.6216 626.537 56.8209V56.1208ZM646.369 57.3459C646.369 63.063 647.719 67.555 650.418 70.8219C653.117 74.0499 656.823 75.6639 661.535 75.6639C667.574 75.6639 671.897 73.7388 674.505 69.8885V43.3449C671.851 39.4946 667.574 37.5694 661.672 37.5694C656.914 37.5694 653.163 39.2223 650.418 42.5281C647.719 45.8339 646.369 50.7732 646.369 57.3459Z" fill="#565658" fill-opacity="0.2"/>
<path d="M33.6346 54.079L22.9294 63.8797V88.1482H2.34235V3.20857H22.9294V41.7114L31.9877 31.1523L57.447 3.20857H82.769L47.2907 40.953L83.7984 88.1482H59.2998L33.6346 54.079Z" fill="#565658" fill-opacity="0.2"/>
<path d="M122.639 89.3149C111.751 89.3149 102.876 86.4758 96.0134 80.7976C89.1968 75.1194 85.7885 67.555 85.7885 58.1043V56.4708C85.7885 50.1315 87.2296 44.4727 90.1117 39.4946C92.9939 34.4775 97.0656 30.6273 102.327 27.9437C107.634 25.2213 113.672 23.8601 120.443 23.8601C130.6 23.8601 138.583 26.5825 144.393 32.0274C150.249 37.4722 153.177 45.1922 153.177 55.1874V62.0712H105.895C106.536 66.1938 108.457 69.4996 111.66 71.9886C114.908 74.4777 119.002 75.7223 123.943 75.7223C131.583 75.7223 137.553 73.3693 141.854 68.6634L151.598 77.9391C148.625 81.5171 144.599 84.3173 139.521 86.3397C134.443 88.3232 128.815 89.3149 122.639 89.3149ZM120.375 37.5111C116.44 37.5111 113.238 38.639 110.767 40.8947C108.343 43.1504 106.787 46.3784 106.101 50.5787H133.688V49.237C133.596 45.5034 132.407 42.6254 130.119 40.603C127.832 38.5417 124.584 37.5111 120.375 37.5111Z" fill="#565658" fill-opacity="0.2"/>
<path d="M198.674 89.3149C187.786 89.3149 178.911 86.4758 172.048 80.7976C165.232 75.1194 161.823 67.555 161.823 58.1043V56.4708C161.823 50.1315 163.264 44.4727 166.147 39.4946C169.029 34.4775 173.1 30.6273 178.362 27.9437C183.668 25.2213 189.707 23.8601 196.478 23.8601C206.634 23.8601 214.618 26.5825 220.428 32.0274C226.284 37.4722 229.212 45.1922 229.212 55.1874V62.0712H181.93C182.57 66.1938 184.492 69.4996 187.694 71.9886C190.942 74.4777 195.037 75.7223 199.978 75.7223C207.618 75.7223 213.588 73.3693 217.889 68.6634L227.633 77.9391C224.659 81.5171 220.634 84.3173 215.555 86.3397C210.477 88.3232 204.85 89.3149 198.674 89.3149ZM196.409 37.5111C192.475 37.5111 189.273 38.639 186.802 40.8947C184.378 43.1504 182.822 46.3784 182.136 50.5787H209.722V49.237C209.631 45.5034 208.441 42.6254 206.154 40.603C203.867 38.5417 200.618 37.5111 196.409 37.5111Z" fill="#565658" fill-opacity="0.2"/>
<path d="M307.374 57.1709C307.374 66.8938 304.766 74.6916 299.551 80.5643C294.381 86.398 287.381 89.3149 278.552 89.3149C271.049 89.3149 264.987 87.0981 260.367 82.6644V112.417H240.534V25.0268H258.925L259.612 31.2106C264.415 26.3103 270.683 23.8601 278.415 23.8601C287.564 23.8601 294.678 26.7381 299.756 32.4941C304.835 38.25 307.374 46.184 307.374 56.2958V57.1709ZM287.541 55.9458C287.541 50.0731 286.306 45.5422 283.836 42.3531C281.411 39.164 277.866 37.5694 273.199 37.5694C266.977 37.5694 262.7 39.5918 260.367 43.6366V69.4801C262.791 73.6415 267.115 75.7223 273.336 75.7223C282.806 75.7223 287.541 69.1301 287.541 55.9458Z" fill="#565658" fill-opacity="0.2"/>
<path d="M351.842 56.1208C351.842 46.4368 354.541 38.639 359.939 32.7274C365.383 26.8159 372.703 23.8601 381.899 23.8601C390.042 23.8601 396.378 26.2325 400.907 30.9773L401.731 25.0268H419.71V86.048C419.71 91.5706 418.223 96.3738 415.25 100.457C412.322 104.541 408.181 107.652 402.829 109.791C397.476 111.93 391.209 113 384.026 113C378.582 113 373.275 112.067 368.105 110.2C362.936 108.372 359.024 105.999 356.371 103.083L365.155 92.8152C370.095 97.5211 376.089 99.874 383.134 99.874C388.395 99.874 392.49 98.6684 395.418 96.2571C398.345 93.8847 399.809 90.5011 399.809 86.1063V82.7228C395.235 87.1175 389.219 89.3149 381.761 89.3149C372.84 89.3149 365.612 86.3591 360.076 80.4476C354.587 74.4972 351.842 66.6216 351.842 56.8209V56.1208ZM371.674 57.3459C371.674 63.063 373.023 67.555 375.723 70.8219C378.422 74.0499 382.127 75.6639 386.84 75.6639C392.878 75.6639 397.202 73.7388 399.809 69.8885V43.3449C397.156 39.4946 392.878 37.5694 386.977 37.5694C382.219 37.5694 378.468 39.2223 375.723 42.5281C373.023 45.8339 371.674 50.7732 371.674 57.3459Z" fill="#565658" fill-opacity="0.2"/>
<path d="M431.925 56.0041C431.925 49.7426 433.343 44.1616 436.18 39.2612C439.016 34.3609 443.088 30.5689 448.395 27.8854C453.747 25.2019 459.946 23.8601 466.992 23.8601C477.011 23.8601 485.177 26.4658 491.49 31.6773C497.849 36.8888 501.395 43.9671 502.127 52.9122L502.264 57.2292C502.264 66.9133 499.085 74.6916 492.726 80.5643C486.366 86.398 477.834 89.3149 467.129 89.3149C456.424 89.3149 447.869 86.398 441.464 80.5643C435.105 74.7305 431.925 66.7966 431.925 56.7625V56.0041ZM451.757 57.2292C451.757 63.2185 453.084 67.8078 455.738 70.9969C458.391 74.1471 462.188 75.7223 467.129 75.7223C471.933 75.7223 475.684 74.1666 478.383 71.0552C481.082 67.905 482.432 62.888 482.432 56.0041C482.432 50.1315 481.082 45.5811 478.383 42.3531C475.684 39.1251 471.887 37.5111 466.992 37.5111C462.142 37.5111 458.391 39.1251 455.738 42.3531C453.084 45.5422 451.757 50.5009 451.757 57.2292Z" fill="#565658" fill-opacity="0.2"/>
<path d="M535.409 88.1482H515.509V25.0268H535.409V88.1482ZM514.342 8.69231C514.342 6.16434 515.326 4.08363 517.293 2.45018C519.306 0.816727 522.028 0 525.459 0C528.844 0 531.544 0.816727 533.557 2.45018C535.57 4.08363 536.576 6.16434 536.576 8.69231C536.576 11.2592 535.547 13.3593 533.488 14.9928C531.475 16.6262 528.799 17.443 525.459 17.443C522.119 17.443 519.42 16.6262 517.361 14.9928C515.348 13.3593 514.342 11.2592 514.342 8.69231Z" fill="#565658" fill-opacity="0.2"/>
<path d="M570.064 25.0268L570.682 32.319C575.989 26.6797 583.103 23.8601 592.024 23.8601C599.893 23.8601 605.748 25.8241 609.591 29.7522C613.434 33.6803 615.401 39.5529 615.493 47.3702V88.1482H595.661V47.7785C595.661 44.2005 594.746 41.6142 592.916 40.0196C591.086 38.3862 588.044 37.5694 583.789 37.5694C578.208 37.5694 574.021 39.5918 571.231 43.6366V88.1482H551.399V25.0268H570.064Z" fill="#565658" fill-opacity="0.2"/>
<path d="M627.708 56.1208C627.708 46.4368 630.407 38.639 635.805 32.7274C641.25 26.8159 648.569 23.8601 657.765 23.8601C665.908 23.8601 672.245 26.2325 676.774 30.9773L677.597 25.0268H695.577V86.048C695.577 91.5706 694.09 96.3738 691.116 100.457C688.188 104.541 684.048 107.652 678.695 109.791C673.343 111.93 667.075 113 659.892 113C654.448 113 649.141 112.067 643.972 110.2C638.802 108.372 634.891 105.999 632.237 103.083L641.021 92.8152C645.962 97.5211 651.955 99.874 659 99.874C664.261 99.874 668.356 98.6684 671.284 96.2571C674.212 93.8847 675.676 90.5011 675.676 86.1063V82.7228C671.101 87.1175 665.085 89.3149 657.628 89.3149C648.707 89.3149 641.478 86.3591 635.943 80.4476C630.453 74.4972 627.708 66.6216 627.708 56.8209V56.1208ZM647.54 57.3459C647.54 63.063 648.89 67.555 651.589 70.8219C654.288 74.0499 657.994 75.6639 662.706 75.6639C668.745 75.6639 673.068 73.7388 675.676 69.8885V43.3449C673.022 39.4946 668.745 37.5694 662.843 37.5694C658.085 37.5694 654.334 39.2223 651.589 42.5281C648.89 45.8339 647.54 50.7732 647.54 57.3459Z" fill="#565658" fill-opacity="0.2"/>
<path d="M41.8329 54.079L31.1276 63.8797V88.1482H10.5406V3.20857H31.1276V41.7114L40.1859 31.1523L65.6452 3.20857H90.9673L55.4889 40.953L91.9966 88.1482H67.498L41.8329 54.079Z" fill="#565658" fill-opacity="0.2"/>
<path d="M130.837 89.3149C119.949 89.3149 111.074 86.4758 104.212 80.7976C97.395 75.1194 93.9867 67.555 93.9867 58.1043V56.4708C93.9867 50.1315 95.4278 44.4727 98.31 39.4946C101.192 34.4775 105.264 30.6273 110.525 27.9437C115.832 25.2213 121.871 23.8601 128.642 23.8601C138.798 23.8601 146.781 26.5825 152.591 32.0274C158.447 37.4722 161.375 45.1922 161.375 55.1874V62.0712H114.093C114.734 66.1938 116.655 69.4996 119.858 71.9886C123.106 74.4777 127.2 75.7223 132.141 75.7223C139.781 75.7223 145.752 73.3693 150.052 68.6634L159.797 77.9391C156.823 81.5171 152.797 84.3173 147.719 86.3397C142.641 88.3232 137.014 89.3149 130.837 89.3149ZM128.573 37.5111C124.639 37.5111 121.436 38.639 118.966 40.8947C116.541 43.1504 114.985 46.3784 114.299 50.5787H141.886V49.237C141.794 45.5034 140.605 42.6254 138.317 40.603C136.03 38.5417 132.782 37.5111 128.573 37.5111Z" fill="#565658" fill-opacity="0.2"/>
<path d="M206.872 89.3149C195.984 89.3149 187.109 86.4758 180.246 80.7976C173.43 75.1194 170.021 67.555 170.021 58.1043V56.4708C170.021 50.1315 171.463 44.4727 174.345 39.4946C177.227 34.4775 181.299 30.6273 186.56 27.9437C191.867 25.2213 197.905 23.8601 204.676 23.8601C214.833 23.8601 222.816 26.5825 228.626 32.0274C234.482 37.4722 237.41 45.1922 237.41 55.1874V62.0712H190.128C190.769 66.1938 192.69 69.4996 195.893 71.9886C199.141 74.4777 203.235 75.7223 208.176 75.7223C215.816 75.7223 221.786 73.3693 226.087 68.6634L235.831 77.9391C232.858 81.5171 228.832 84.3173 223.754 86.3397C218.676 88.3232 213.048 89.3149 206.872 89.3149ZM204.608 37.5111C200.673 37.5111 197.471 38.639 195 40.8947C192.576 43.1504 191.02 46.3784 190.334 50.5787H217.921V49.237C217.829 45.5034 216.64 42.6254 214.352 40.603C212.065 38.5417 208.817 37.5111 204.608 37.5111Z" fill="#565658" fill-opacity="0.2"/>
<path d="M315.572 57.1709C315.572 66.8938 312.964 74.6916 307.749 80.5643C302.579 86.398 295.58 89.3149 286.75 89.3149C279.247 89.3149 273.185 87.0981 268.565 82.6644V112.417H248.733V25.0268H267.124L267.81 31.2106C272.614 26.3103 278.881 23.8601 286.613 23.8601C295.763 23.8601 302.876 26.7381 307.955 32.4941C313.033 38.25 315.572 46.184 315.572 56.2958V57.1709ZM295.74 55.9458C295.74 50.0731 294.504 45.5422 292.034 42.3531C289.609 39.164 286.064 37.5694 281.397 37.5694C275.176 37.5694 270.898 39.5918 268.565 43.6366V69.4801C270.989 73.6415 275.313 75.7223 281.535 75.7223C291.005 75.7223 295.74 69.1301 295.74 55.9458Z" fill="#565658" fill-opacity="0.2"/>
<path d="M360.04 56.1208C360.04 46.4368 362.739 38.639 368.137 32.7274C373.582 26.8159 380.901 23.8601 390.097 23.8601C398.24 23.8601 404.576 26.2325 409.106 30.9773L409.929 25.0268H427.908V86.048C427.908 91.5706 426.422 96.3738 423.448 100.457C420.52 104.541 416.38 107.652 411.027 109.791C405.674 111.93 399.407 113 392.224 113C386.78 113 381.473 112.067 376.304 110.2C371.134 108.372 367.222 105.999 364.569 103.083L373.353 92.8152C378.294 97.5211 384.287 99.874 391.332 99.874C396.593 99.874 400.688 98.6684 403.616 96.2571C406.544 93.8847 408.008 90.5011 408.008 86.1063V82.7228C403.433 87.1175 397.417 89.3149 389.96 89.3149C381.039 89.3149 373.81 86.3591 368.275 80.4476C362.785 74.4972 360.04 66.6216 360.04 56.8209V56.1208ZM379.872 57.3459C379.872 63.063 381.222 67.555 383.921 70.8219C386.62 74.0499 390.326 75.6639 395.038 75.6639C401.077 75.6639 405.4 73.7388 408.008 69.8885V43.3449C405.354 39.4946 401.077 37.5694 395.175 37.5694C390.417 37.5694 386.666 39.2223 383.921 42.5281C381.222 45.8339 379.872 50.7732 379.872 57.3459Z" fill="#565658" fill-opacity="0.2"/>
<path d="M440.123 56.0041C440.123 49.7426 441.542 44.1616 444.378 39.2612C447.215 34.3609 451.286 30.5689 456.593 27.8854C461.946 25.2019 468.145 23.8601 475.19 23.8601C485.209 23.8601 493.375 26.4658 499.689 31.6773C506.048 36.8888 509.593 43.9671 510.325 52.9122L510.462 57.2292C510.462 66.9133 507.283 74.6916 500.924 80.5643C494.565 86.398 486.033 89.3149 475.327 89.3149C464.622 89.3149 456.067 86.398 449.662 80.5643C443.303 74.7305 440.123 66.7966 440.123 56.7625V56.0041ZM459.956 57.2292C459.956 63.2185 461.282 67.8078 463.936 70.9969C466.589 74.1471 470.386 75.7223 475.327 75.7223C480.131 75.7223 483.882 74.1666 486.581 71.0552C489.281 67.905 490.63 62.888 490.63 56.0041C490.63 50.1315 489.281 45.5811 486.581 42.3531C483.882 39.1251 480.085 37.5111 475.19 37.5111C470.341 37.5111 466.589 39.1251 463.936 42.3531C461.282 45.5422 459.956 50.5009 459.956 57.2292Z" fill="#565658" fill-opacity="0.2"/>
<path d="M543.608 88.1482H523.707V25.0268H543.608V88.1482ZM522.54 8.69231C522.54 6.16434 523.524 4.08363 525.491 2.45018C527.504 0.816727 530.226 0 533.657 0C537.043 0 539.742 0.816727 541.755 2.45018C543.768 4.08363 544.774 6.16434 544.774 8.69231C544.774 11.2592 543.745 13.3593 541.686 14.9928C539.673 16.6262 536.997 17.443 533.657 17.443C530.318 17.443 527.618 16.6262 525.56 14.9928C523.547 13.3593 522.54 11.2592 522.54 8.69231Z" fill="#565658" fill-opacity="0.2"/>
<path d="M578.262 25.0268L578.88 32.319C584.187 26.6797 591.301 23.8601 600.222 23.8601C608.091 23.8601 613.947 25.8241 617.79 29.7522C621.632 33.6803 623.6 39.5529 623.691 47.3702V88.1482H603.859V47.7785C603.859 44.2005 602.944 41.6142 601.114 40.0196C599.284 38.3862 596.242 37.5694 591.987 37.5694C586.406 37.5694 582.22 39.5918 579.429 43.6366V88.1482H559.597V25.0268H578.262Z" fill="#565658" fill-opacity="0.2"/>
<path d="M635.906 56.1208C635.906 46.4368 638.605 38.639 644.004 32.7274C649.448 26.8159 656.768 23.8601 665.963 23.8601C674.107 23.8601 680.443 26.2325 684.972 30.9773L685.795 25.0268H703.775V86.048C703.775 91.5706 702.288 96.3738 699.314 100.457C696.386 104.541 692.246 107.652 686.893 109.791C681.541 111.93 675.273 113 668.091 113C662.646 113 657.34 112.067 652.17 110.2C647 108.372 643.089 105.999 640.435 103.083L649.219 92.8152C654.16 97.5211 660.153 99.874 667.198 99.874C672.46 99.874 676.554 98.6684 679.482 96.2571C682.41 93.8847 683.874 90.5011 683.874 86.1063V82.7228C679.299 87.1175 673.283 89.3149 665.826 89.3149C656.905 89.3149 649.677 86.3591 644.141 80.4476C638.651 74.4972 635.906 66.6216 635.906 56.8209V56.1208ZM655.738 57.3459C655.738 63.063 657.088 67.555 659.787 70.8219C662.486 74.0499 666.192 75.6639 670.904 75.6639C676.943 75.6639 681.266 73.7388 683.874 69.8885V43.3449C681.221 39.4946 676.943 37.5694 671.041 37.5694C666.283 37.5694 662.532 39.2223 659.787 42.5281C657.088 45.8339 655.738 50.7732 655.738 57.3459Z" fill="#565658" fill-opacity="0.2"/>
<path d="M47.6887 54.079L36.9835 63.8797V88.1482H16.3964V3.20857H36.9835V41.7114L46.0418 31.1523L71.5011 3.20857H96.8231L61.3448 40.953L97.8525 88.1482H73.3539L47.6887 54.079Z" fill="#565658" fill-opacity="0.2"/>
<path d="M136.693 89.3149C125.805 89.3149 116.93 86.4758 110.067 80.7976C103.251 75.1194 99.8426 67.555 99.8426 58.1043V56.4708C99.8426 50.1315 101.284 44.4727 104.166 39.4946C107.048 34.4775 111.12 30.6273 116.381 27.9437C121.688 25.2213 127.727 23.8601 134.497 23.8601C144.654 23.8601 152.637 26.5825 158.447 32.0274C164.303 37.4722 167.231 45.1922 167.231 55.1874V62.0712H119.949C120.59 66.1938 122.511 69.4996 125.714 71.9886C128.962 74.4777 133.056 75.7223 137.997 75.7223C145.637 75.7223 151.608 73.3693 155.908 68.6634L165.652 77.9391C162.679 81.5171 158.653 84.3173 153.575 86.3397C148.497 88.3232 142.869 89.3149 136.693 89.3149ZM134.429 37.5111C130.494 37.5111 127.292 38.639 124.821 40.8947C122.397 43.1504 120.841 46.3784 120.155 50.5787H147.742V49.237C147.65 45.5034 146.461 42.6254 144.173 40.603C141.886 38.5417 138.638 37.5111 134.429 37.5111Z" fill="#565658" fill-opacity="0.2"/>
<path d="M212.728 89.3149C201.84 89.3149 192.965 86.4758 186.102 80.7976C179.286 75.1194 175.877 67.555 175.877 58.1043V56.4708C175.877 50.1315 177.318 44.4727 180.201 39.4946C183.083 34.4775 187.154 30.6273 192.416 27.9437C197.722 25.2213 203.761 23.8601 210.532 23.8601C220.688 23.8601 228.672 26.5825 234.482 32.0274C240.338 37.4722 243.266 45.1922 243.266 55.1874V62.0712H195.984C196.625 66.1938 198.546 69.4996 201.748 71.9886C204.997 74.4777 209.091 75.7223 214.032 75.7223C221.672 75.7223 227.642 73.3693 231.943 68.6634L241.687 77.9391C238.714 81.5171 234.688 84.3173 229.61 86.3397C224.531 88.3232 218.904 89.3149 212.728 89.3149ZM210.464 37.5111C206.529 37.5111 203.327 38.639 200.856 40.8947C198.432 43.1504 196.876 46.3784 196.19 50.5787H223.777V49.237C223.685 45.5034 222.496 42.6254 220.208 40.603C217.921 38.5417 214.672 37.5111 210.464 37.5111Z" fill="#565658" fill-opacity="0.2"/>
<path d="M321.428 57.1709C321.428 66.8938 318.82 74.6916 313.605 80.5643C308.435 86.398 301.435 89.3149 292.606 89.3149C285.103 89.3149 279.041 87.0981 274.421 82.6644V112.417H254.588V25.0268H272.98L273.666 31.2106C278.469 26.3103 284.737 23.8601 292.469 23.8601C301.618 23.8601 308.732 26.7381 313.81 32.4941C318.889 38.25 321.428 46.184 321.428 56.2958V57.1709ZM301.596 55.9458C301.596 50.0731 300.36 45.5422 297.89 42.3531C295.465 39.164 291.92 37.5694 287.253 37.5694C281.031 37.5694 276.754 39.5918 274.421 43.6366V69.4801C276.845 73.6415 281.169 75.7223 287.39 75.7223C296.861 75.7223 301.596 69.1301 301.596 55.9458Z" fill="#565658" fill-opacity="0.2"/>
<path d="M365.896 56.1208C365.896 46.4368 368.595 38.639 373.993 32.7274C379.437 26.8159 386.757 23.8601 395.953 23.8601C404.096 23.8601 410.432 26.2325 414.961 30.9773L415.785 25.0268H433.764V86.048C433.764 91.5706 432.277 96.3738 429.304 100.457C426.376 104.541 422.236 107.652 416.883 109.791C411.53 111.93 405.263 113 398.08 113C392.636 113 387.329 112.067 382.159 110.2C376.99 108.372 373.078 105.999 370.425 103.083L379.209 92.8152C384.15 97.5211 390.143 99.874 397.188 99.874C402.449 99.874 406.544 98.6684 409.472 96.2571C412.4 93.8847 413.863 90.5011 413.863 86.1063V82.7228C409.289 87.1175 403.273 89.3149 395.816 89.3149C386.894 89.3149 379.666 86.3591 374.131 80.4476C368.641 74.4972 365.896 66.6216 365.896 56.8209V56.1208ZM385.728 57.3459C385.728 63.063 387.077 67.555 389.777 70.8219C392.476 74.0499 396.182 75.6639 400.894 75.6639C406.933 75.6639 411.256 73.7388 413.863 69.8885V43.3449C411.21 39.4946 406.933 37.5694 401.031 37.5694C396.273 37.5694 392.522 39.2223 389.777 42.5281C387.077 45.8339 385.728 50.7732 385.728 57.3459Z" fill="#565658" fill-opacity="0.2"/>
<path d="M445.979 56.0041C445.979 49.7426 447.397 44.1616 450.234 39.2612C453.07 34.3609 457.142 30.5689 462.449 27.8854C467.802 25.2019 474.001 23.8601 481.046 23.8601C491.065 23.8601 499.231 26.4658 505.544 31.6773C511.904 36.8888 515.449 43.9671 516.181 52.9122L516.318 57.2292C516.318 66.9133 513.139 74.6916 506.78 80.5643C500.421 86.398 491.888 89.3149 481.183 89.3149C470.478 89.3149 461.923 86.398 455.518 80.5643C449.159 74.7305 445.979 66.7966 445.979 56.7625V56.0041ZM465.811 57.2292C465.811 63.2185 467.138 67.8078 469.792 70.9969C472.445 74.1471 476.242 75.7223 481.183 75.7223C485.987 75.7223 489.738 74.1666 492.437 71.0552C495.137 67.905 496.486 62.888 496.486 56.0041C496.486 50.1315 495.137 45.5811 492.437 42.3531C489.738 39.1251 485.941 37.5111 481.046 37.5111C476.196 37.5111 472.445 39.1251 469.792 42.3531C467.138 45.5422 465.811 50.5009 465.811 57.2292Z" fill="#565658" fill-opacity="0.2"/>
<path d="M549.463 88.1482H529.563V25.0268H549.463V88.1482ZM528.396 8.69231C528.396 6.16434 529.38 4.08363 531.347 2.45018C533.36 0.816727 536.082 0 539.513 0C542.898 0 545.598 0.816727 547.611 2.45018C549.624 4.08363 550.63 6.16434 550.63 8.69231C550.63 11.2592 549.601 13.3593 547.542 14.9928C545.529 16.6262 542.853 17.443 539.513 17.443C536.173 17.443 533.474 16.6262 531.415 14.9928C529.403 13.3593 528.396 11.2592 528.396 8.69231Z" fill="#565658" fill-opacity="0.2"/>
<path d="M584.118 25.0268L584.736 32.319C590.043 26.6797 597.157 23.8601 606.078 23.8601C613.947 23.8601 619.802 25.8241 623.645 29.7522C627.488 33.6803 629.456 39.5529 629.547 47.3702V88.1482H609.715V47.7785C609.715 44.2005 608.8 41.6142 606.97 40.0196C605.14 38.3862 602.098 37.5694 597.843 37.5694C592.262 37.5694 588.076 39.5918 585.285 43.6366V88.1482H565.453V25.0268H584.118Z" fill="#565658" fill-opacity="0.2"/>
<path d="M641.762 56.1208C641.762 46.4368 644.461 38.639 649.86 32.7274C655.304 26.8159 662.624 23.8601 671.819 23.8601C679.962 23.8601 686.299 26.2325 690.828 30.9773L691.651 25.0268H709.631V86.048C709.631 91.5706 708.144 96.3738 705.17 100.457C702.242 104.541 698.102 107.652 692.749 109.791C687.397 111.93 681.129 113 673.946 113C668.502 113 663.195 112.067 658.026 110.2C652.856 108.372 648.945 105.999 646.291 103.083L655.075 92.8152C660.016 97.5211 666.009 99.874 673.054 99.874C678.315 99.874 682.41 98.6684 685.338 96.2571C688.266 93.8847 689.73 90.5011 689.73 86.1063V82.7228C685.155 87.1175 679.139 89.3149 671.682 89.3149C662.761 89.3149 655.532 86.3591 649.997 80.4476C644.507 74.4972 641.762 66.6216 641.762 56.8209V56.1208ZM661.594 57.3459C661.594 63.063 662.944 67.555 665.643 70.8219C668.342 74.0499 672.048 75.6639 676.76 75.6639C682.799 75.6639 687.122 73.7388 689.73 69.8885V43.3449C687.076 39.4946 682.799 37.5694 676.897 37.5694C672.139 37.5694 668.388 39.2223 665.643 42.5281C662.944 45.8339 661.594 50.7732 661.594 57.3459Z" fill="#565658" fill-opacity="0.2"/>
<path d="M57.0581 54.079L46.3529 63.8797V88.1482H25.7658V3.20857H46.3529V41.7114L55.4112 31.1523L80.8705 3.20857H106.193L70.7142 40.953L107.222 88.1482H82.7233L57.0581 54.079Z" fill="#565658" fill-opacity="0.2"/>
<path d="M146.063 89.3149C135.174 89.3149 126.299 86.4758 119.437 80.7976C112.62 75.1194 109.212 67.555 109.212 58.1043V56.4708C109.212 50.1315 110.653 44.4727 113.535 39.4946C116.417 34.4775 120.489 30.6273 125.75 27.9437C131.057 25.2213 137.096 23.8601 143.867 23.8601C154.023 23.8601 162.006 26.5825 167.816 32.0274C173.672 37.4722 176.6 45.1922 176.6 55.1874V62.0712H129.319C129.959 66.1938 131.881 69.4996 135.083 71.9886C138.331 74.4777 142.426 75.7223 147.367 75.7223C155.007 75.7223 160.977 73.3693 165.277 68.6634L175.022 77.9391C172.048 81.5171 168.022 84.3173 162.944 86.3397C157.866 88.3232 152.239 89.3149 146.063 89.3149ZM143.798 37.5111C139.864 37.5111 136.661 38.639 134.191 40.8947C131.766 43.1504 130.211 46.3784 129.524 50.5787H157.111V49.237C157.02 45.5034 155.83 42.6254 153.543 40.603C151.255 38.5417 148.007 37.5111 143.798 37.5111Z" fill="#565658" fill-opacity="0.2"/>
<path d="M222.098 89.3149C211.209 89.3149 202.334 86.4758 195.472 80.7976C188.655 75.1194 185.247 67.555 185.247 58.1043V56.4708C185.247 50.1315 186.688 44.4727 189.57 39.4946C192.452 34.4775 196.524 30.6273 201.785 27.9437C207.092 25.2213 213.131 23.8601 219.902 23.8601C230.058 23.8601 238.041 26.5825 243.851 32.0274C249.707 37.4722 252.635 45.1922 252.635 55.1874V62.0712H205.353C205.994 66.1938 207.915 69.4996 211.118 71.9886C214.366 74.4777 218.46 75.7223 223.401 75.7223C231.041 75.7223 237.012 73.3693 241.312 68.6634L251.057 77.9391C248.083 81.5171 244.057 84.3173 238.979 86.3397C233.901 88.3232 228.274 89.3149 222.098 89.3149ZM219.833 37.5111C215.899 37.5111 212.696 38.639 210.226 40.8947C207.801 43.1504 206.246 46.3784 205.559 50.5787H233.146V49.237C233.054 45.5034 231.865 42.6254 229.577 40.603C227.29 38.5417 224.042 37.5111 219.833 37.5111Z" fill="#565658" fill-opacity="0.2"/>
<path d="M330.797 57.1709C330.797 66.8938 328.189 74.6916 322.974 80.5643C317.804 86.398 310.805 89.3149 301.975 89.3149C294.472 89.3149 288.411 87.0981 283.79 82.6644V112.417H263.958V25.0268H282.349L283.035 31.2106C287.839 26.3103 294.106 23.8601 301.838 23.8601C310.988 23.8601 318.102 26.7381 323.18 32.4941C328.258 38.25 330.797 46.184 330.797 56.2958V57.1709ZM310.965 55.9458C310.965 50.0731 309.73 45.5422 307.259 42.3531C304.835 39.164 301.289 37.5694 296.623 37.5694C290.401 37.5694 286.123 39.5918 283.79 43.6366V69.4801C286.215 73.6415 290.538 75.7223 296.76 75.7223C306.23 75.7223 310.965 69.1301 310.965 55.9458Z" fill="#565658" fill-opacity="0.2"/>
<path d="M375.265 56.1208C375.265 46.4368 377.964 38.639 383.363 32.7274C388.807 26.8159 396.127 23.8601 405.322 23.8601C413.465 23.8601 419.802 26.2325 424.331 30.9773L425.154 25.0268H443.134V86.048C443.134 91.5706 441.647 96.3738 438.673 100.457C435.745 104.541 431.605 107.652 426.252 109.791C420.9 111.93 414.632 113 407.449 113C402.005 113 396.698 112.067 391.529 110.2C386.359 108.372 382.448 105.999 379.794 103.083L388.578 92.8152C393.519 97.5211 399.512 99.874 406.557 99.874C411.819 99.874 415.913 98.6684 418.841 96.2571C421.769 93.8847 423.233 90.5011 423.233 86.1063V82.7228C418.658 87.1175 412.642 89.3149 405.185 89.3149C396.264 89.3149 389.036 86.3591 383.5 80.4476C378.01 74.4972 375.265 66.6216 375.265 56.8209V56.1208ZM395.097 57.3459C395.097 63.063 396.447 67.555 399.146 70.8219C401.845 74.0499 405.551 75.6639 410.263 75.6639C416.302 75.6639 420.625 73.7388 423.233 69.8885V43.3449C420.579 39.4946 416.302 37.5694 410.4 37.5694C405.642 37.5694 401.891 39.2223 399.146 42.5281C396.447 45.8339 395.097 50.7732 395.097 57.3459Z" fill="#565658" fill-opacity="0.2"/>
<path d="M455.349 56.0041C455.349 49.7426 456.767 44.1616 459.603 39.2612C462.44 34.3609 466.511 30.5689 471.818 27.8854C477.171 25.2019 483.37 23.8601 490.415 23.8601C500.434 23.8601 508.6 26.4658 514.914 31.6773C521.273 36.8888 524.818 43.9671 525.55 52.9122L525.688 57.2292C525.688 66.9133 522.508 74.6916 516.149 80.5643C509.79 86.398 501.258 89.3149 490.553 89.3149C479.847 89.3149 471.292 86.398 464.887 80.5643C458.528 74.7305 455.349 66.7966 455.349 56.7625V56.0041ZM475.181 57.2292C475.181 63.2185 476.508 67.8078 479.161 70.9969C481.814 74.1471 485.612 75.7223 490.553 75.7223C495.356 75.7223 499.108 74.1666 501.807 71.0552C504.506 67.905 505.856 62.888 505.856 56.0041C505.856 50.1315 504.506 45.5811 501.807 42.3531C499.108 39.1251 495.31 37.5111 490.415 37.5111C485.566 37.5111 481.814 39.1251 479.161 42.3531C476.508 45.5422 475.181 50.5009 475.181 57.2292Z" fill="#565658" fill-opacity="0.2"/>
<path d="M558.833 88.1482H538.932V25.0268H558.833V88.1482ZM537.765 8.69231C537.765 6.16434 538.749 4.08363 540.716 2.45018C542.729 0.816727 545.451 0 548.882 0C552.268 0 554.967 0.816727 556.98 2.45018C558.993 4.08363 559.999 6.16434 559.999 8.69231C559.999 11.2592 558.97 13.3593 556.911 14.9928C554.898 16.6262 552.222 17.443 548.882 17.443C545.543 17.443 542.844 16.6262 540.785 14.9928C538.772 13.3593 537.765 11.2592 537.765 8.69231Z" fill="#565658" fill-opacity="0.2"/>
<path d="M593.488 25.0268L594.105 32.319C599.412 26.6797 606.526 23.8601 615.447 23.8601C623.316 23.8601 629.172 25.8241 633.015 29.7522C636.858 33.6803 638.825 39.5529 638.916 47.3702V88.1482H619.084V47.7785C619.084 44.2005 618.169 41.6142 616.339 40.0196C614.509 38.3862 611.467 37.5694 607.212 37.5694C601.631 37.5694 597.445 39.5918 594.654 43.6366V88.1482H574.822V25.0268H593.488Z" fill="#565658" fill-opacity="0.2"/>
<path d="M651.131 56.1208C651.131 46.4368 653.831 38.639 659.229 32.7274C664.673 26.8159 671.993 23.8601 681.188 23.8601C689.332 23.8601 695.668 26.2325 700.197 30.9773L701.021 25.0268H719V86.048C719 91.5706 717.513 96.3738 714.539 100.457C711.612 104.541 707.471 107.652 702.119 109.791C696.766 111.93 690.498 113 683.316 113C677.872 113 672.565 112.067 667.395 110.2C662.226 108.372 658.314 105.999 655.661 103.083L664.444 92.8152C669.385 97.5211 675.378 99.874 682.424 99.874C687.685 99.874 691.779 98.6684 694.707 96.2571C697.635 93.8847 699.099 90.5011 699.099 86.1063V82.7228C694.524 87.1175 688.508 89.3149 681.051 89.3149C672.13 89.3149 664.902 86.3591 659.366 80.4476C653.876 74.4972 651.131 66.6216 651.131 56.8209V56.1208ZM670.964 57.3459C670.964 63.063 672.313 67.555 675.012 70.8219C677.712 74.0499 681.417 75.6639 686.129 75.6639C692.168 75.6639 696.492 73.7388 699.099 69.8885V43.3449C696.446 39.4946 692.168 37.5694 686.267 37.5694C681.509 37.5694 677.757 39.2223 675.012 42.5281C672.313 45.8339 670.964 50.7732 670.964 57.3459Z" fill="#565658" fill-opacity="0.2"/>
</svg>
